<svg width="26" height="26" viewBox="0 0 26 26" fill="none" xmlns="http://www.w3.org/2000/svg">
<path d="M21.1588 3.90538H19.4838V3.20935C19.4838 2.87281 19.2109 2.59998 18.8744 2.59998C18.5378 2.59998 18.265 2.87281 18.265 3.20935V3.90538H15.5675V3.20935C15.5675 2.87281 15.2947 2.59998 14.9581 2.59998C14.6216 2.59998 14.3488 2.87281 14.3488 3.20935V3.90538H11.6513V3.20935C11.6513 2.87281 11.3784 2.59998 11.0419 2.59998C10.7053 2.59998 10.4325 2.87281 10.4325 3.20935V3.90538H7.73501V3.20935C7.73501 2.87281 7.46217 2.59998 7.12563 2.59998C6.78909 2.59998 6.51626 2.87281 6.51626 3.20935V3.90538H4.84112C3.60539 3.90538 2.60001 4.91073 2.60001 6.14654V21.1588C2.60001 22.3946 3.60539 23.4 4.84112 23.4H21.1588C22.3946 23.4 23.4 22.3946 23.4 21.1588V6.14654C23.4 4.91073 22.3946 3.90538 21.1588 3.90538ZM4.84112 5.12413H6.51626V5.8202C6.51626 6.15673 6.78909 6.42957 7.12563 6.42957C7.46217 6.42957 7.73501 6.15673 7.73501 5.8202V5.12413H10.4324V5.8202C10.4324 6.15673 10.7053 6.42957 11.0418 6.42957C11.3783 6.42957 11.6512 6.15673 11.6512 5.8202V5.12413H14.3487V5.8202C14.3487 6.15673 14.6215 6.42957 14.958 6.42957C15.2946 6.42957 15.5674 6.15673 15.5674 5.8202V5.12413H18.2649V5.8202C18.2649 6.15673 18.5378 6.42957 18.8743 6.42957C19.2108 6.42957 19.4837 6.15673 19.4837 5.8202V5.12413H21.1587C21.7226 5.12413 22.1813 5.58278 22.1813 6.14654V7.82163H3.81876V6.14654C3.81876 5.58278 4.27741 5.12413 4.84112 5.12413ZM21.1588 22.1812H4.84112C4.27741 22.1812 3.81876 21.7226 3.81876 21.1588V9.04038H22.1813V21.1588C22.1813 21.7226 21.7226 22.1812 21.1588 22.1812Z" fill="#F8A601"/>
<path d="M8.75736 11.0851H6.14651C5.80998 11.0851 5.53714 11.3579 5.53714 11.6945V14.3053C5.53714 14.6418 5.80998 14.9146 6.14651 14.9146H8.7574C9.09394 14.9146 9.36678 14.6418 9.36678 14.3053V11.6945C9.36674 11.3579 9.09394 11.0851 8.75736 11.0851ZM8.14799 13.6959H6.75585V12.3038H8.14799V13.6959Z" fill="#F8A601"/>
<path d="M19.8534 11.0851H17.2426C16.906 11.0851 16.6332 11.3579 16.6332 11.6945V14.3053C16.6332 14.6418 16.906 14.9146 17.2426 14.9146H19.8534C20.1899 14.9146 20.4628 14.6418 20.4628 14.3053V11.6945C20.4628 11.3579 20.1899 11.0851 19.8534 11.0851ZM19.244 13.6959H17.852V12.3038H19.244V13.6959Z" fill="#F8A601"/>
<path d="M8.75736 16.3069H6.14651C5.80998 16.3069 5.53714 16.5797 5.53714 16.9163V19.5271C5.53714 19.8636 5.80998 20.1364 6.14651 20.1364H8.7574C9.09394 20.1364 9.36678 19.8636 9.36678 19.5271V16.9163C9.36674 16.5797 9.09394 16.3069 8.75736 16.3069ZM8.14799 18.9177H6.75585V17.5256H8.14799V18.9177Z" fill="#F8A601"/>
<path d="M19.8534 16.3069H17.2426C16.906 16.3069 16.6332 16.5797 16.6332 16.9163V19.5271C16.6332 19.8636 16.906 20.1364 17.2426 20.1364H19.8534C20.1899 20.1364 20.4628 19.8636 20.4628 19.5271V16.9163C20.4628 16.5797 20.1899 16.3069 19.8534 16.3069ZM19.244 18.9177H17.852V17.5256H19.244V18.9177Z" fill="#F8A601"/>
<path d="M14.3054 16.3069H11.6945C11.358 16.3069 11.0851 16.5797 11.0851 16.9163V19.5271C11.0851 19.8636 11.358 20.1364 11.6945 20.1364H14.3054C14.6419 20.1364 14.9148 19.8636 14.9148 19.5271V16.9163C14.9148 16.5797 14.6419 16.3069 14.3054 16.3069ZM13.696 18.9177H12.3039V17.5256H13.696V18.9177Z" fill="#F8A601"/>
<path d="M13.9537 11.646L12.5385 13.0612L12.0463 12.569C11.8084 12.331 11.4225 12.331 11.1845 12.569C10.9466 12.807 10.9466 13.1928 11.1845 13.4308L12.1077 14.3539C12.2219 14.4682 12.3769 14.5324 12.5385 14.5324C12.7002 14.5324 12.8552 14.4682 12.9694 14.3539L14.8155 12.5078C15.0534 12.2698 15.0534 11.884 14.8155 11.646C14.5775 11.408 14.1916 11.408 13.9537 11.646Z" fill="#F8A601"/>
</svg>
