<svg width="24" height="25" viewBox="0 0 24 25" fill="none" xmlns="http://www.w3.org/2000/svg">
<path opacity="0.6" d="M21.9124 9.77026L20.6749 8.53276C19.7573 7.61518 18.6681 6.88732 17.4692 6.39073C16.2704 5.89414 14.9855 5.63855 13.6879 5.63855C12.3903 5.63855 11.1054 5.89414 9.90652 6.39073C8.70769 6.88732 7.6184 7.61518 6.70087 8.53276L5.46975 9.76313H3.375C2.57962 9.76403 1.81708 10.0804 1.25467 10.6428C0.692251 11.2052 0.375893 11.9678 0.375 12.7631V13.8881C0.375595 14.3852 0.573331 14.8618 0.924832 15.2133C1.27633 15.5648 1.7529 15.7625 2.25 15.7631H4.15088C4.24168 16.4879 4.59399 17.1545 5.14164 17.6379C5.68929 18.1212 6.39458 18.3879 7.125 18.3879C7.85542 18.3879 8.56071 18.1212 9.10836 17.6379C9.65601 17.1545 10.0083 16.4879 10.0991 15.7631H15.4009C15.4917 16.4879 15.844 17.1545 16.3916 17.6379C16.9393 18.1212 17.6446 18.3879 18.375 18.3879C19.1054 18.3879 19.8107 18.1212 20.3584 17.6379C20.906 17.1545 21.2583 16.4879 21.3491 15.7631H22.125C22.5228 15.7631 22.9044 15.6051 23.1857 15.3238C23.467 15.0425 23.625 14.661 23.625 14.2631V11.6381C23.6245 11.1691 23.4484 10.7173 23.1314 10.3716C22.8145 10.0259 22.3796 9.81139 21.9124 9.77026ZM22.875 11.6381V12.0131H21.75C21.6505 12.0131 21.5552 11.9736 21.4848 11.9033C21.4145 11.833 21.375 11.7376 21.375 11.6381V10.5131H21.75C22.0484 10.5131 22.3345 10.6317 22.5455 10.8426C22.7565 11.0536 22.875 11.3398 22.875 11.6381ZM20.8447 9.76313H14.25V6.40688C16.4744 6.53748 18.5728 7.48293 20.1442 9.06263L20.8447 9.76313ZM7.23225 9.06263C8.89502 7.39176 11.1431 6.4341 13.5 6.39263V9.76313H6.53025L7.23225 9.06263ZM3.375 10.5131V11.6381C3.375 11.837 3.29598 12.0278 3.15533 12.1685C3.01468 12.3091 2.82391 12.3881 2.625 12.3881H1.15875C1.24773 11.8644 1.51895 11.389 1.92449 11.0459C2.33003 10.7028 2.84379 10.5141 3.375 10.5131ZM7.125 17.6381C6.67999 17.6381 6.24498 17.5062 5.87497 17.2589C5.50496 17.0117 5.21657 16.6603 5.04627 16.2492C4.87597 15.838 4.83142 15.3856 4.91823 14.9492C5.00505 14.5127 5.21934 14.1118 5.53401 13.7971C5.84868 13.4825 6.24959 13.2682 6.68605 13.1814C7.1225 13.0945 7.5749 13.1391 7.98604 13.3094C8.39717 13.4797 8.74857 13.7681 8.99581 14.1381C9.24304 14.5081 9.375 14.9431 9.375 15.3881C9.3744 15.9847 9.13716 16.5566 8.71533 16.9785C8.2935 17.4003 7.72155 17.6375 7.125 17.6381ZM18.375 17.6381C17.93 17.6381 17.495 17.5062 17.125 17.2589C16.755 17.0117 16.4666 16.6603 16.2963 16.2492C16.126 15.838 16.0814 15.3856 16.1682 14.9492C16.255 14.5127 16.4693 14.1118 16.784 13.7971C17.0987 13.4825 17.4996 13.2682 17.936 13.1814C18.3725 13.0945 18.8249 13.1391 19.236 13.3094C19.6472 13.4797 19.9986 13.7681 20.2458 14.1381C20.493 14.5081 20.625 14.9431 20.625 15.3881C20.6244 15.9847 20.3872 16.5566 19.9653 16.9785C19.5435 17.4003 18.9716 17.6375 18.375 17.6381ZM22.125 15.0131H21.3491C21.2583 14.2884 20.906 13.6217 20.3584 13.1384C19.8107 12.6551 19.1054 12.3884 18.375 12.3884C17.6446 12.3884 16.9393 12.6551 16.3916 13.1384C15.844 13.6217 15.4917 14.2884 15.4009 15.0131H10.0991C10.0083 14.2884 9.65601 13.6217 9.10836 13.1384C8.56071 12.6551 7.85542 12.3884 7.125 12.3884C6.39458 12.3884 5.68929 12.6551 5.14164 13.1384C4.59399 13.6217 4.24168 14.2884 4.15088 15.0131H2.25C1.95163 15.0131 1.66548 14.8946 1.4545 14.6836C1.24353 14.4726 1.125 14.1865 1.125 13.8881V13.1381H2.625C3.02282 13.1381 3.40436 12.9801 3.68566 12.6988C3.96696 12.4175 4.125 12.036 4.125 11.6381V10.5131H20.625V11.6381C20.625 11.9365 20.7435 12.2226 20.9545 12.4336C21.1655 12.6446 21.4516 12.7631 21.75 12.7631H22.875V14.2631C22.875 14.462 22.796 14.6528 22.6553 14.7935C22.5147 14.9341 22.3239 15.0131 22.125 15.0131Z" fill="black" stroke="black" stroke-width="0.4"/>
<path d="M10.5 11.2632H13.5V12.0132H10.5V11.2632Z" fill="black" fill-opacity="0.6"/>
<path d="M14.25 11.2632H17.25V12.0132H14.25V11.2632Z" fill="black" fill-opacity="0.6"/>
<path d="M7.125 13.8882C6.82833 13.8882 6.53832 13.9762 6.29165 14.141C6.04497 14.3058 5.85271 14.5401 5.73918 14.8142C5.62565 15.0882 5.59594 15.3898 5.65382 15.6808C5.7117 15.9718 5.85456 16.2391 6.06434 16.4488C6.27412 16.6586 6.54139 16.8015 6.83237 16.8594C7.12334 16.9172 7.42494 16.8875 7.69903 16.774C7.97311 16.6605 8.20738 16.4682 8.37221 16.2215C8.53703 15.9749 8.625 15.6849 8.625 15.3882C8.625 14.9904 8.46697 14.6088 8.18566 14.3275C7.90436 14.0462 7.52283 13.8882 7.125 13.8882ZM7.125 16.1382C6.97666 16.1382 6.83166 16.0942 6.70832 16.0118C6.58499 15.9294 6.48886 15.8122 6.43209 15.6752C6.37533 15.5382 6.36047 15.3874 6.38941 15.2419C6.41835 15.0964 6.48978 14.9627 6.59467 14.8579C6.69956 14.753 6.8332 14.6815 6.97868 14.6526C7.12417 14.6237 7.27497 14.6385 7.41201 14.6953C7.54906 14.752 7.66619 14.8482 7.7486 14.9715C7.83101 15.0948 7.875 15.2398 7.875 15.3882C7.875 15.5871 7.79598 15.7779 7.65533 15.9185C7.51468 16.0592 7.32391 16.1382 7.125 16.1382Z" fill="black" fill-opacity="0.6"/>
<path d="M18.375 13.8882C18.0783 13.8882 17.7883 13.9762 17.5416 14.141C17.295 14.3058 17.1027 14.5401 16.9892 14.8142C16.8756 15.0882 16.8459 15.3898 16.9038 15.6808C16.9617 15.9718 17.1046 16.2391 17.3143 16.4488C17.5241 16.6586 17.7914 16.8015 18.0824 16.8594C18.3733 16.9172 18.6749 16.8875 18.949 16.774C19.2231 16.6605 19.4574 16.4682 19.6222 16.2215C19.787 15.9749 19.875 15.6849 19.875 15.3882C19.875 14.9904 19.717 14.6088 19.4357 14.3275C19.1544 14.0462 18.7728 13.8882 18.375 13.8882ZM18.375 16.1382C18.2267 16.1382 18.0817 16.0942 17.9583 16.0118C17.835 15.9294 17.7389 15.8122 17.6821 15.6752C17.6253 15.5382 17.6105 15.3874 17.6394 15.2419C17.6684 15.0964 17.7398 14.9627 17.8447 14.8579C17.9496 14.753 18.0832 14.6815 18.2287 14.6526C18.3742 14.6237 18.525 14.6385 18.662 14.6953C18.7991 14.752 18.9162 14.8482 18.9986 14.9715C19.081 15.0948 19.125 15.2398 19.125 15.3882C19.125 15.5871 19.046 15.7779 18.9053 15.9185C18.7647 16.0592 18.5739 16.1382 18.375 16.1382Z" fill="black" fill-opacity="0.6"/>
</svg>
