<svg width="20" height="20" viewBox="0 0 20 20" fill="none" xmlns="http://www.w3.org/2000/svg">
<g opacity="0.6">
<path fill-rule="evenodd" clip-rule="evenodd" d="M13.125 2.49996V18.3333C13.125 18.6783 12.845 18.9583 12.5 18.9583H2.50002C2.11335 18.9583 1.74252 18.805 1.46919 18.5308C1.19502 18.2575 1.04169 17.8866 1.04169 17.5V2.49996C1.04169 2.11329 1.19502 1.74246 1.46919 1.46913C1.74252 1.19496 2.11335 1.04163 2.50002 1.04163H11.6667C12.0534 1.04163 12.4242 1.19496 12.6975 1.46913C12.9717 1.74246 13.125 2.11329 13.125 2.49996ZM11.875 2.49996C11.875 2.44496 11.8534 2.39163 11.8142 2.35246C11.775 2.31329 11.7217 2.29163 11.6667 2.29163H2.50002C2.44502 2.29163 2.39169 2.31329 2.35252 2.35246C2.31335 2.39163 2.29169 2.44496 2.29169 2.49996V17.5C2.29169 17.555 2.31335 17.6083 2.35252 17.6475C2.39169 17.6866 2.44502 17.7083 2.50002 17.7083H11.875V2.49996Z" fill="black"/>
<path fill-rule="evenodd" clip-rule="evenodd" d="M9.79167 12.9167V18.3333C9.79167 18.6783 9.51167 18.9583 9.16667 18.9583H5C4.655 18.9583 4.375 18.6783 4.375 18.3333V12.9167C4.375 12.64 4.485 12.3758 4.68 12.18C4.87583 11.985 5.14083 11.875 5.41667 11.875H8.75C9.02583 11.875 9.29083 11.985 9.48667 12.18C9.68167 12.3758 9.79167 12.64 9.79167 12.9167ZM5.625 13.125V17.7083H8.54167V13.125H5.625Z" fill="black"/>
<path fill-rule="evenodd" clip-rule="evenodd" d="M18.9583 7.49996V17.5C18.9583 18.3058 18.305 18.9583 17.5 18.9583H12.5C12.155 18.9583 11.875 18.6783 11.875 18.3333V6.66663C11.875 6.32163 12.155 6.04163 12.5 6.04163H17.5C18.305 6.04163 18.9583 6.69413 18.9583 7.49996ZM17.7083 7.49996C17.7083 7.38496 17.615 7.29163 17.5 7.29163H13.125V17.7083H17.5C17.615 17.7083 17.7083 17.615 17.7083 17.5V7.49996Z" fill="black"/>
<path fill-rule="evenodd" clip-rule="evenodd" d="M3.95837 3.75H5.20837V5H3.95837V3.75Z" fill="black"/>
<path fill-rule="evenodd" clip-rule="evenodd" d="M3.95837 6.66663H5.20837V7.91663H3.95837V6.66663Z" fill="black"/>
<path fill-rule="evenodd" clip-rule="evenodd" d="M3.95837 9.58325H5.20837V10.8333H3.95837V9.58325Z" fill="black"/>
<path fill-rule="evenodd" clip-rule="evenodd" d="M6.45837 3.75H7.70837V5H6.45837V3.75Z" fill="black"/>
<path fill-rule="evenodd" clip-rule="evenodd" d="M6.45837 6.66663H7.70837V7.91663H6.45837V6.66663Z" fill="black"/>
<path fill-rule="evenodd" clip-rule="evenodd" d="M6.45837 9.58325H7.70837V10.8333H6.45837V9.58325Z" fill="black"/>
<path fill-rule="evenodd" clip-rule="evenodd" d="M8.95837 3.75H10.2084V5H8.95837V3.75Z" fill="black"/>
<path fill-rule="evenodd" clip-rule="evenodd" d="M14.7917 8.95825H16.0417V10.2083H14.7917V8.95825Z" fill="black"/>
<path fill-rule="evenodd" clip-rule="evenodd" d="M14.7917 11.875H16.0417V13.125H14.7917V11.875Z" fill="black"/>
<path fill-rule="evenodd" clip-rule="evenodd" d="M14.7917 14.7916H16.0417V16.0416H14.7917V14.7916Z" fill="black"/>
<path fill-rule="evenodd" clip-rule="evenodd" d="M8.95837 6.66663H10.2084V7.91663H8.95837V6.66663Z" fill="black"/>
<path fill-rule="evenodd" clip-rule="evenodd" d="M8.95837 9.58325H10.2084V10.8333H8.95837V9.58325Z" fill="black"/>
</g>
</svg>
