<svg width="16" height="16" viewBox="0 0 16 16" fill="none" xmlns="http://www.w3.org/2000/svg">
<g opacity="0.38">
<path d="M10.5602 14.8337H5.44022C4.92797 14.8263 4.43739 14.6258 4.06658 14.2723C3.69578 13.9188 3.47208 13.4383 3.44022 12.927L2.83355 3.70033C2.83044 3.63343 2.84063 3.56658 2.86351 3.50364C2.8864 3.44071 2.92153 3.38293 2.96689 3.33366C3.01361 3.28259 3.07018 3.24151 3.13319 3.21286C3.1962 3.18422 3.26436 3.16862 3.33355 3.16699H12.6669C12.7355 3.16684 12.8033 3.18079 12.8663 3.20798C12.9292 3.23516 12.9859 3.275 13.0328 3.32502C13.0797 3.37504 13.1158 3.43417 13.1388 3.49873C13.1619 3.5633 13.1715 3.63192 13.1669 3.70033L12.5869 12.927C12.5547 13.4429 12.3272 13.9271 11.9508 14.2813C11.5743 14.6355 11.0771 14.833 10.5602 14.8337ZM3.89355 4.16699L4.40689 12.867C4.42385 13.1293 4.54016 13.3753 4.73214 13.5549C4.92412 13.7345 5.17733 13.8342 5.44022 13.8337H10.5602C10.8226 13.8326 11.075 13.7324 11.2666 13.5532C11.4583 13.3739 11.5751 13.1288 11.5936 12.867L12.1336 4.20033L3.89355 4.16699Z" fill="black"/>
<path d="M14 4.16699H2C1.86739 4.16699 1.74021 4.11431 1.64645 4.02055C1.55268 3.92678 1.5 3.7996 1.5 3.66699C1.5 3.53438 1.55268 3.40721 1.64645 3.31344C1.74021 3.21967 1.86739 3.16699 2 3.16699H14C14.1326 3.16699 14.2598 3.21967 14.3536 3.31344C14.4473 3.40721 14.5 3.53438 14.5 3.66699C14.5 3.7996 14.4473 3.92678 14.3536 4.02055C14.2598 4.11431 14.1326 4.16699 14 4.16699Z" fill="black"/>
<path d="M10 4.16699H6C5.86793 4.16527 5.74175 4.11203 5.64836 4.01864C5.55496 3.92524 5.50173 3.79906 5.5 3.66699V2.46699C5.50845 2.12487 5.64813 1.7991 5.89012 1.55711C6.13211 1.31512 6.45788 1.17544 6.8 1.16699H9.2C9.54781 1.17569 9.87845 1.32 10.1213 1.56911C10.3642 1.81822 10.5001 2.1524 10.5 2.50033V3.66699C10.4983 3.79906 10.445 3.92524 10.3516 4.01864C10.2582 4.11203 10.1321 4.16527 10 4.16699ZM6.5 3.16699H9.5V2.50033C9.5 2.42076 9.46839 2.34445 9.41213 2.28819C9.35587 2.23193 9.27957 2.20033 9.2 2.20033H6.8C6.72043 2.20033 6.64413 2.23193 6.58787 2.28819C6.53161 2.34445 6.5 2.42076 6.5 2.50033V3.16699Z" fill="black"/>
<path d="M10 12.1663C9.86793 12.1646 9.74175 12.1114 9.64836 12.018C9.55496 11.9246 9.50173 11.7984 9.5 11.6663V6.33301C9.5 6.2004 9.55268 6.07322 9.64645 5.97945C9.74022 5.88569 9.86739 5.83301 10 5.83301C10.1326 5.83301 10.2598 5.88569 10.3536 5.97945C10.4473 6.07322 10.5 6.2004 10.5 6.33301V11.6663C10.4983 11.7984 10.445 11.9246 10.3516 12.018C10.2582 12.1114 10.1321 12.1646 10 12.1663Z" fill="black"/>
<path d="M6 12.1663C5.86793 12.1646 5.74175 12.1114 5.64836 12.018C5.55496 11.9246 5.50173 11.7984 5.5 11.6663V6.33301C5.5 6.2004 5.55268 6.07322 5.64645 5.97945C5.74022 5.88569 5.86739 5.83301 6 5.83301C6.13261 5.83301 6.25978 5.88569 6.35355 5.97945C6.44732 6.07322 6.5 6.2004 6.5 6.33301V11.6663C6.49827 11.7984 6.44504 11.9246 6.35164 12.018C6.25825 12.1114 6.13207 12.1646 6 12.1663Z" fill="black"/>
<path d="M8 12.1663C7.86793 12.1646 7.74175 12.1114 7.64836 12.018C7.55496 11.9246 7.50173 11.7984 7.5 11.6663V6.33301C7.5 6.2004 7.55268 6.07322 7.64645 5.97945C7.74022 5.88569 7.86739 5.83301 8 5.83301C8.13261 5.83301 8.25978 5.88569 8.35355 5.97945C8.44732 6.07322 8.5 6.2004 8.5 6.33301V11.6663C8.49827 11.7984 8.44504 11.9246 8.35164 12.018C8.25825 12.1114 8.13207 12.1646 8 12.1663Z" fill="black"/>
</g>
</svg>
