<svg width="16" height="16" viewBox="0 0 16 16" fill="none" xmlns="http://www.w3.org/2000/svg">
<g opacity="0.38">
<path d="M2.7763 10.8993C2.6483 10.8993 2.52055 10.8505 2.4228 10.7528C2.22755 10.5575 2.22755 10.241 2.4228 10.0458L10.2363 2.23225C10.4313 2.037 10.7481 2.037 10.9433 2.23225C11.1386 2.4275 11.1386 2.744 10.9433 2.93925L3.12981 10.7528C3.03231 10.8503 2.9043 10.8993 2.7763 10.8993Z" fill="black"/>
<path d="M2.00441 14.5003C1.96966 14.5003 1.93441 14.4965 1.89916 14.489C1.62916 14.431 1.45716 14.1653 1.51516 13.8953L2.28766 10.2945C2.34566 10.0245 2.61266 9.85302 2.88141 9.91052C3.15141 9.96852 3.32341 10.2343 3.26541 10.5043L2.49291 14.105C2.44266 14.3398 2.23516 14.5003 2.00441 14.5003Z" fill="black"/>
<path d="M5.60443 13.7273C5.47643 13.7273 5.34868 13.6785 5.25093 13.5808C5.05568 13.3855 5.05568 13.069 5.25093 12.8738L13.0644 5.0605C13.2594 4.86525 13.5762 4.86525 13.7714 5.0605C13.9667 5.25575 13.9667 5.57225 13.7714 5.7675L5.95818 13.5808C5.86043 13.6785 5.73243 13.7273 5.60443 13.7273Z" fill="black"/>
<path d="M2.00334 14.5001C1.77259 14.5001 1.56534 14.3396 1.51484 14.1048C1.45709 13.8348 1.62884 13.5691 1.89884 13.5111L5.49959 12.7386C5.76984 12.6813 6.03559 12.8528 6.09334 13.1226C6.15109 13.3926 5.97934 13.6583 5.70934 13.7163L2.10859 14.4888C2.07334 14.4966 2.03809 14.5001 2.00334 14.5001Z" fill="black"/>
<path d="M12.0037 7.32831C11.8757 7.32831 11.7477 7.27956 11.6502 7.18181L8.82197 4.35356C8.62672 4.15831 8.62672 3.84181 8.82197 3.64656C9.01697 3.45131 9.33398 3.45131 9.52898 3.64656L12.3572 6.47481C12.5525 6.67006 12.5525 6.98656 12.3572 7.18181C12.2597 7.27956 12.1317 7.32831 12.0037 7.32831Z" fill="black"/>
<path d="M13.418 5.91419C13.29 5.91419 13.162 5.86544 13.0643 5.76769C12.869 5.57244 12.869 5.25594 13.0643 5.06044C13.3425 4.78219 13.4958 4.40544 13.4958 3.99994C13.4958 3.59444 13.3425 3.21769 13.0643 2.93944C12.7858 2.66094 12.409 2.50769 12.0035 2.50769C11.598 2.50769 11.2213 2.66094 10.943 2.93944C10.748 3.13469 10.4315 3.13494 10.2358 2.93944C10.0405 2.74419 10.0405 2.42769 10.2358 2.23219C10.7028 1.76494 11.3305 1.50769 12.0035 1.50769C12.6763 1.50769 13.3043 1.76494 13.7713 2.23219C14.2385 2.69919 14.4958 3.32694 14.4958 3.99994C14.4958 4.67294 14.2385 5.30069 13.7713 5.76769C13.674 5.86519 13.546 5.91419 13.418 5.91419Z" fill="black"/>
</g>
</svg>
