<svg width="20" height="20" viewBox="0 0 20 20" fill="none" xmlns="http://www.w3.org/2000/svg">
<g clip-path="url(#clip0_994_612)">
<mask id="mask0_994_612" style="mask-type:luminance" maskUnits="userSpaceOnUse" x="0" y="0" width="20" height="20">
<path d="M0 1.90735e-06H20V20H0V1.90735e-06Z" fill="white"/>
</mask>
<g mask="url(#mask0_994_612)">
<path fill-rule="evenodd" clip-rule="evenodd" d="M0 8.59375C0 9.88815 1.04935 10.9375 2.34375 10.9375H7.03125C8.32565 10.9375 9.375 9.88815 9.375 8.59375V2.34375C9.375 1.04935 8.32565 0 7.03125 0H2.34375C1.04935 0 0 1.04935 0 2.34375V8.59375ZM2.34375 9.375C1.91229 9.375 1.5625 9.02521 1.5625 8.59375V2.34375C1.5625 1.91229 1.91229 1.5625 2.34375 1.5625H7.03125C7.46271 1.5625 7.8125 1.91229 7.8125 2.34375V8.59375C7.8125 9.02521 7.46271 9.375 7.03125 9.375H2.34375Z" fill="black" fill-opacity="0.6"/>
<path fill-rule="evenodd" clip-rule="evenodd" d="M10.625 17.6562C10.625 18.9507 11.6743 20 12.9687 20H17.6562C18.9507 20 20 18.9507 20 17.6562V11.4062C20 10.1118 18.9507 9.0625 17.6562 9.0625H12.9687C11.6743 9.0625 10.625 10.1118 10.625 11.4062V17.6562ZM12.9687 18.4375C12.5373 18.4375 12.1875 18.0877 12.1875 17.6562V11.4062C12.1875 10.9748 12.5373 10.625 12.9687 10.625H17.6562C18.0877 10.625 18.4375 10.9748 18.4375 11.4062V17.6562C18.4375 18.0877 18.0877 18.4375 17.6562 18.4375H12.9687Z" fill="black" fill-opacity="0.6"/>
<path fill-rule="evenodd" clip-rule="evenodd" d="M0 17.6563C0 18.9507 1.04935 20 2.34375 20H7.03125C8.32565 20 9.375 18.9507 9.375 17.6563V14.5313C9.375 13.2368 8.32565 12.1875 7.03125 12.1875H2.34375C1.04935 12.1875 0 13.2368 0 14.5313V17.6563ZM2.34375 18.4375C1.91229 18.4375 1.5625 18.0877 1.5625 17.6563V14.5313C1.5625 14.0998 1.91229 13.75 2.34375 13.75H7.03125C7.46271 13.75 7.8125 14.0998 7.8125 14.5313V17.6563C7.8125 18.0877 7.46271 18.4375 7.03125 18.4375H2.34375Z" fill="black" fill-opacity="0.6"/>
<path fill-rule="evenodd" clip-rule="evenodd" d="M10.625 5.46875C10.625 6.76315 11.6743 7.8125 12.9687 7.8125H17.6562C18.9507 7.8125 20 6.76315 20 5.46875V2.34375C20 1.04935 18.9507 9.53674e-07 17.6562 9.53674e-07H12.9687C11.6743 9.53674e-07 10.625 1.04935 10.625 2.34375V5.46875ZM12.9687 6.25C12.5373 6.25 12.1875 5.90021 12.1875 5.46875V2.34375C12.1875 1.91229 12.5373 1.5625 12.9687 1.5625H17.6562C18.0877 1.5625 18.4375 1.91229 18.4375 2.34375V5.46875C18.4375 5.90021 18.0877 6.25 17.6562 6.25H12.9687Z" fill="black" fill-opacity="0.6"/>
</g>
</g>
<defs>
<clipPath id="clip0_994_612">
<rect width="20" height="20" fill="white"/>
</clipPath>
</defs>
</svg>
