<svg width="20" height="20" viewBox="0 0 20 20" fill="none" xmlns="http://www.w3.org/2000/svg">
<path d="M1.59449 12.0006L1.5945 12.0006C2.28097 11.6964 4.07415 11.0714 7.23077 11.0714C7.82356 11.0714 8.36818 11.0935 8.86628 11.1312C8.82763 11.4154 8.80769 11.7054 8.80769 12C8.80769 13.6075 9.40139 15.0751 10.3778 16.18C9.89146 16.3864 9.35931 16.5 8.80113 16.5H5.6604C3.37729 16.5 1.5 14.5859 1.5 12.1916C1.5 12.0732 1.55656 12.0174 1.59449 12.0006ZM16.1301 12.0357H15.7892L15.6646 12.3531C15.5723 12.5884 15.3917 12.7719 15.1727 12.8633L14.8654 12.9916V13.3247V14.807V15.4144L15.4614 15.2977C16.7838 15.0388 17.8117 13.9686 18.0585 12.6261L18.1671 12.0357H17.5668H16.1301ZM15.6646 11.6469L15.7892 11.9643H16.1301H17.5668H18.1671L18.0585 11.3739C17.7747 9.83004 16.4546 8.64286 14.8462 8.64286C13.2377 8.64286 11.9177 9.83004 11.6338 11.3739L11.5252 11.9643H12.1255H13.5622H13.9031L14.0277 11.6469C14.1633 11.3011 14.485 11.0714 14.8462 11.0714C15.2073 11.0714 15.529 11.3011 15.6646 11.6469ZM14.0277 12.3531L13.9031 12.0357H13.5622H12.1255H11.5252L11.6338 12.6261C11.8806 13.9686 12.9085 15.0388 14.2309 15.2977L14.8269 15.4144V14.807V13.3247V12.9916L14.5196 12.8633C14.3006 12.7719 14.12 12.5884 14.0277 12.3531ZM10.1923 5.57143C10.1923 7.28256 8.85175 8.64286 7.23077 8.64286C5.60978 8.64286 4.26923 7.28256 4.26923 5.57143C4.26923 3.86028 5.60977 2.5 7.23077 2.5C8.85175 2.5 10.1923 3.86028 10.1923 5.57143ZM18.5 12C18.5 14.1056 16.8495 15.7857 14.8462 15.7857C12.8428 15.7857 11.1923 14.1056 11.1923 12C11.1923 9.89437 12.8428 8.21429 14.8462 8.21429C16.8495 8.21429 18.5 9.89437 18.5 12Z" stroke="black" stroke-opacity="0.6"/>
</svg>
