<svg width="16" height="16" viewBox="0 0 16 16" fill="none" xmlns="http://www.w3.org/2000/svg">
<rect width="16" height="16" fill="white"/>
<g clip-path="url(#clip0_2901_1334)">
<path opacity="0.38" d="M8 1C4.13602 1 1 4.13602 1 8C1 11.864 4.13602 15 8 15C11.864 15 15 11.864 15 8C15 4.13602 11.864 1 8 1ZM2.97866 8C2.97866 5.21867 5.23732 2.96 8 2.96C9.04534 2.96 10.0347 3.27735 10.8373 3.83733L3.85601 10.8374C3.296 10.0347 2.97866 9.04534 2.97866 8ZM8 13.0213C6.95466 13.0213 5.96532 12.704 5.16267 12.144L12.144 5.16267C12.704 5.96535 13.0213 6.95466 13.0213 8C13.0213 10.7813 10.7813 13.0213 8 13.0213Z" fill="black" stroke="white"/>
</g>
<defs>
<clipPath id="clip0_2901_1334">
<rect width="16" height="16" fill="white"/>
</clipPath>
</defs>
</svg>
