<svg width="20" height="20" viewBox="0 0 20 20" fill="none" xmlns="http://www.w3.org/2000/svg">
<path d="M16.1719 1.0959H13.9717C13.3911 0.425352 12.5355 0 11.582 0H8.41797C7.46453 0 6.60891 0.425352 6.02832 1.0959H3.82812C2.85887 1.0959 2.07031 1.88602 2.07031 2.85715V18.2388C2.07031 19.2099 2.85887 20 3.82812 20H16.1719C17.1411 20 17.9297 19.2099 17.9297 18.2388V2.85715C17.9297 1.88598 17.1411 1.0959 16.1719 1.0959ZM8.41797 1.17418H11.582C12.4874 1.17418 13.2393 1.78023 13.4863 2.58316H6.51367C6.76031 1.78164 7.51121 1.17418 8.41797 1.17418ZM16.7578 18.2388C16.7578 18.5625 16.495 18.8258 16.1719 18.8258H3.82812C3.50504 18.8258 3.24219 18.5625 3.24219 18.2388V2.85715C3.24219 2.53344 3.50504 2.27008 3.82812 2.27008H5.38461C5.30004 2.55562 5.25391 2.85758 5.25391 3.17027C5.25391 3.49449 5.51625 3.75734 5.83984 3.75734H14.1602C14.4838 3.75734 14.7461 3.49449 14.7461 3.17027C14.7461 2.85758 14.7 2.55562 14.6154 2.27008H16.1719C16.495 2.27008 16.7578 2.53344 16.7578 2.85715V18.2388Z" fill="black" fill-opacity="0.6"/>
<path d="M7.11174 11.6658L6.25002 12.5291L6.03932 12.318C5.81053 12.0887 5.43951 12.0887 5.21068 12.318C4.98186 12.5473 4.98186 12.919 5.21068 13.1483L5.83568 13.7745C6.06447 14.0037 6.43549 14.0038 6.66432 13.7745L7.94033 12.4959C8.16916 12.2667 8.16916 11.895 7.94033 11.6657C7.71154 11.4365 7.34053 11.4365 7.11174 11.6658Z" fill="black" fill-opacity="0.6"/>
<path d="M14.3359 12.1331H9.60938C9.28578 12.1331 9.02344 12.3959 9.02344 12.7201C9.02344 13.0443 9.28578 13.3072 9.60938 13.3072H14.3359C14.6595 13.3072 14.9219 13.0443 14.9219 12.7201C14.9219 12.3959 14.6595 12.1331 14.3359 12.1331Z" fill="black" fill-opacity="0.6"/>
<path d="M7.11174 15.0317L6.25002 15.8951L6.03932 15.684C5.81053 15.4547 5.43951 15.4547 5.21068 15.684C4.98186 15.9132 4.98186 16.285 5.21068 16.5142L5.83568 17.1404C6.06447 17.3697 6.43549 17.3697 6.66432 17.1404L7.94033 15.8619C8.16916 15.6327 8.16916 15.2609 7.94033 15.0317C7.71154 14.8024 7.34053 14.8024 7.11174 15.0317Z" fill="black" fill-opacity="0.6"/>
<path d="M14.3359 15.499H9.60938C9.28578 15.499 9.02344 15.7619 9.02344 16.0861C9.02344 16.4103 9.28578 16.6732 9.60938 16.6732H14.3359C14.6595 16.6732 14.9219 16.4103 14.9219 16.0861C14.9219 15.7619 14.6595 15.499 14.3359 15.499Z" fill="black" fill-opacity="0.6"/>
<path d="M11.1174 9.41712L12.9297 7.60134V7.6713C12.9297 7.99552 13.1921 8.25837 13.5156 8.25837C13.8392 8.25837 14.1016 7.99552 14.1016 7.6713C14.1016 6.01063 14.1043 6.16524 14.0949 6.09966C14.0534 5.81243 13.8076 5.59685 13.5154 5.59692H12.0313C11.7077 5.59692 11.4453 5.85978 11.4453 6.18399C11.4453 6.50821 11.7077 6.77106 12.0313 6.77106H12.1011L10.7031 8.17173L8.92994 6.39509C8.70115 6.16579 8.33014 6.16579 8.10131 6.39509L5.99193 8.5086C5.76311 8.73786 5.76311 9.10958 5.99193 9.33884C6.22072 9.56813 6.59174 9.56813 6.82057 9.33884L8.51564 7.64048L10.2888 9.41712C10.5176 9.64638 10.8887 9.64642 11.1174 9.41712Z" fill="black" fill-opacity="0.6"/>
</svg>
