<svg width="26" height="26" viewBox="0 0 26 26" fill="none" xmlns="http://www.w3.org/2000/svg">
<g clip-path="url(#clip0_944_12730)">
<path d="M11.0195 18.5352C11.2998 18.5352 11.5273 18.3076 11.5273 18.0273C11.5273 17.7471 11.2998 17.5195 11.0195 17.5195C10.7392 17.5195 10.5117 17.7471 10.5117 18.0273C10.5117 18.3076 10.7392 18.5352 11.0195 18.5352Z" fill="#F8A601"/>
<path d="M0.199524 19.7067L6.29328 25.8005C6.49165 25.9988 6.813 25.9988 7.01136 25.8005L10.3629 22.4489C10.5613 22.2505 10.5613 21.9292 10.3629 21.7308L10.2142 21.5821H17.5342C18.1771 21.5821 18.7906 21.341 19.2637 20.9019L25.4244 15.1281C26.0141 14.5804 26.2095 13.7104 25.9103 12.9633C25.6941 12.4226 25.2526 12.0088 24.6991 11.8281C24.1455 11.647 23.545 11.7204 23.0511 12.029C23.0479 12.031 21.6834 12.9264 21.6834 12.9264C21.6741 10.1737 20.0104 7.23832 17.7203 5.91682C17.851 5.76665 17.9537 5.58892 18.0192 5.38996C18.2812 4.59273 17.8456 3.72985 17.0472 3.46622C17.0222 3.45789 16.9972 3.45055 16.9722 3.44281L18.2795 1.09458C18.3546 0.959489 18.3644 0.797425 18.3054 0.654603C18.2467 0.511582 18.1261 0.403077 17.9775 0.360032C17.0403 0.0874788 16.0661 -0.0507812 15.082 -0.0507812C14.0981 -0.0507812 13.1238 0.0874788 12.1865 0.359833C12.0379 0.403077 11.9173 0.511384 11.8584 0.654405C11.7997 0.797425 11.8092 0.959489 11.8846 1.09458L13.1918 3.44281C13.1664 3.45075 13.141 3.45829 13.1156 3.46662C12.3184 3.72985 11.883 4.59254 12.145 5.39036C12.2105 5.58892 12.314 5.76606 12.4452 5.91642C10.1209 7.25756 8.48045 10.2231 8.48045 12.9492C8.48045 13.0236 8.48223 13.097 8.48462 13.1698C7.57511 13.418 6.72949 13.87 6.01835 14.4927L4.47507 15.843L4.26917 15.6371C4.07081 15.4387 3.74946 15.4387 3.55109 15.6371L0.199524 18.9886C0.0011596 19.187 0.0011596 19.5084 0.199524 19.7067ZM13.093 1.17729C13.7437 1.03606 14.4102 0.964845 15.082 0.964845C15.7539 0.964845 16.4204 1.03606 17.0712 1.17729L15.9396 3.20993C15.3691 3.13039 14.7946 3.13039 14.2247 3.20993L13.093 1.17729ZM13.4326 4.43146C14.4746 4.09047 15.6107 4.06469 16.73 4.43107C16.9964 4.51894 17.1418 4.80697 17.0544 5.07278C16.9885 5.27293 16.81 5.4088 16.6031 5.42091C15.6017 5.10253 14.5617 5.10193 13.5608 5.41991C13.5608 5.41991 13.5608 5.41991 13.5606 5.41991C13.3519 5.40682 13.1747 5.27035 13.1097 5.07297C13.0222 4.80677 13.1676 4.51874 13.4326 4.43146ZM13.7135 6.4399C14.594 6.12272 15.5063 6.11518 16.389 6.41848C18.7484 7.22979 20.668 10.1594 20.668 12.9492C20.668 13.1857 20.6531 13.411 20.6237 13.6217L18.1829 15.2231C17.805 14.7549 17.2323 14.4727 16.6055 14.4727H15.5898V13.8776C16.181 13.6679 16.6055 13.1034 16.6055 12.4414C16.6055 11.6013 15.9221 10.918 15.082 10.918C14.8021 10.918 14.5742 10.6903 14.5742 10.4102C14.5742 10.1301 14.8021 9.90236 15.082 9.90236C15.2619 9.90236 15.4518 9.9942 15.6313 10.1678C15.8328 10.3628 16.1544 10.3574 16.3494 10.1561C16.5444 9.95453 16.539 9.63298 16.3375 9.43798C16.0798 9.18844 15.8219 9.04741 15.5898 8.97044V8.37892C15.5898 8.09843 15.3625 7.8711 15.082 7.8711C14.8015 7.8711 14.5742 8.09843 14.5742 8.37892V8.97401C13.9833 9.18368 13.5586 9.74823 13.5586 10.4102C13.5586 11.2502 14.2419 11.9336 15.082 11.9336C15.3621 11.9336 15.5898 12.1613 15.5898 12.4414C15.5898 12.7215 15.3621 12.9492 15.082 12.9492C14.865 12.9492 14.6309 12.8128 14.4227 12.565C14.2421 12.3504 13.9218 12.3226 13.7072 12.5031C13.4925 12.6836 13.4648 13.004 13.6453 13.2186C13.9166 13.5416 14.236 13.7665 14.5742 13.88V14.4727H14.4052C14.1557 14.4727 14.0436 14.31 13.8678 14.1964C12.7949 13.3922 11.4658 12.9492 10.1253 12.9492C9.91562 12.9492 9.70555 12.9601 9.49647 12.9814C9.49647 12.9707 9.49608 12.9601 9.49608 12.9492C9.49608 10.1985 11.3881 7.27859 13.7135 6.4399ZM6.68723 15.2568C7.64137 14.4213 8.86746 13.9649 10.1253 13.9649C11.2476 13.9649 12.3603 14.3356 13.2581 15.0087C13.3876 15.0844 13.7482 15.4883 14.405 15.4883H16.6055C17.1835 15.4883 17.6211 15.9582 17.6211 16.5039C17.6211 17.0639 17.1654 17.5196 16.6055 17.5196H13.0508C12.7703 17.5196 12.543 17.7469 12.543 18.0274C12.543 18.3079 12.7703 18.5352 13.0508 18.5352H16.6055C17.7254 18.5352 18.6367 17.6239 18.6367 16.5039C18.6367 16.3875 18.6264 16.2726 18.607 16.1596L23.5936 12.8877C23.8309 12.7412 24.1187 12.7068 24.3837 12.7933C24.6503 12.8806 24.8632 13.08 24.9673 13.3406C25.1139 13.7064 25.0219 14.116 24.7315 14.3856L18.5711 20.1592C18.2882 20.4218 17.92 20.5664 17.5342 20.5664H9.19853L5.19494 16.5626L6.68723 15.2568ZM3.91013 16.7142L9.28581 22.0899L6.65232 24.7234L1.27664 19.3477L3.91013 16.7142Z" fill="#F8A601"/>
</g>
<defs>
<clipPath id="clip0_944_12730">
<rect width="26" height="26" fill="white"/>
</clipPath>
</defs>
</svg>
