<svg width="20" height="20" viewBox="0 0 20 20" fill="none" xmlns="http://www.w3.org/2000/svg">
<path d="M4.94321 4.48873L4.76086 5.21622L4.94321 4.48873ZM7.75534 2.86514L7.03414 2.65932L7.75534 2.86514ZM2.69862 8.37647L3.23747 7.8548L2.69862 8.37647ZM2.69862 11.6236L2.15977 11.102H2.15977L2.69862 11.6236ZM4.94321 15.5114L5.12557 16.2389L4.94321 15.5114ZM7.75534 17.135L7.03414 17.3408L7.75534 17.135ZM12.2445 17.135L12.9657 17.3408L12.2445 17.135ZM15.0567 15.5114L15.239 14.7839L15.0567 15.5114ZM17.3012 11.6236L16.7624 12.1453L17.3012 11.6236ZM17.3012 8.37647L16.7624 7.8548L17.3012 8.37647ZM15.0567 4.48873L14.8743 3.76123L15.0567 4.48873ZM12.2445 2.86514L12.9657 2.65932L12.2445 2.86514ZM4.76086 5.21622C6.37538 5.62092 8.01977 4.67153 8.47655 3.07096L7.03414 2.65932C6.79951 3.48145 5.95487 3.96911 5.12557 3.76123L4.76086 5.21622ZM3.23747 7.8548C2.12889 6.70971 3.21489 4.8287 4.76086 5.21622L5.12557 3.76123C2.11581 3.0068 0.00153208 6.66883 2.15977 8.89814L3.23747 7.8548ZM3.23747 12.1453C4.39521 10.9494 4.39521 9.05067 3.23747 7.8548L2.15977 8.89814C2.75445 9.5124 2.75445 10.4877 2.15977 11.102L3.23747 12.1453ZM4.76086 14.7839C3.21489 15.1714 2.12889 13.2904 3.23747 12.1453L2.15977 11.102C0.00153136 13.3313 2.11581 16.9933 5.12557 16.2389L4.76086 14.7839ZM8.47655 16.9291C8.01977 15.3286 6.37538 14.3792 4.76086 14.7839L5.12557 16.2389C5.95487 16.031 6.79951 16.5187 7.03414 17.3408L8.47655 16.9291ZM11.5233 16.9291C11.0859 18.4618 8.91393 18.4618 8.47655 16.9291L7.03414 17.3408C7.88566 20.3245 12.1142 20.3245 12.9657 17.3408L11.5233 16.9291ZM15.239 14.7839C13.6245 14.3792 11.9801 15.3286 11.5233 16.9291L12.9657 17.3408C13.2004 16.5187 14.045 16.031 14.8743 16.2389L15.239 14.7839ZM16.7624 12.1453C17.871 13.2904 16.785 15.1714 15.239 14.7839L14.8743 16.2389C17.8841 16.9933 19.9983 13.3313 17.8401 11.102L16.7624 12.1453ZM16.7624 7.8548C15.6047 9.05067 15.6047 10.9494 16.7624 12.1453L17.8401 11.102C17.2454 10.4877 17.2454 9.5124 17.8401 8.89814L16.7624 7.8548ZM15.239 5.21622C16.785 4.8287 17.871 6.70971 16.7624 7.8548L17.8401 8.89814C19.9983 6.66883 17.8841 3.0068 14.8743 3.76123L15.239 5.21622ZM11.5233 3.07096C11.9801 4.67153 13.6245 5.62092 15.239 5.21622L14.8743 3.76123C14.045 3.96911 13.2004 3.48145 12.9657 2.65932L11.5233 3.07096ZM12.9657 2.65932C12.1142 -0.324428 7.88566 -0.324427 7.03414 2.65932L8.47655 3.07096C8.91393 1.53836 11.0859 1.53836 11.5233 3.07096L12.9657 2.65932ZM6.74993 10.0001C6.74993 11.795 8.20501 13.2501 9.99993 13.2501V11.7501C9.03344 11.7501 8.24993 10.9666 8.24993 10.0001H6.74993ZM9.99993 13.2501C11.7949 13.2501 13.2499 11.795 13.2499 10.0001H11.7499C11.7499 10.9666 10.9664 11.7501 9.99993 11.7501V13.2501ZM13.2499 10.0001C13.2499 8.20513 11.7949 6.75005 9.99993 6.75005V8.25005C10.9664 8.25005 11.7499 9.03356 11.7499 10.0001H13.2499ZM9.99993 6.75005C8.20501 6.75005 6.74993 8.20513 6.74993 10.0001H8.24993C8.24993 9.03356 9.03344 8.25005 9.99993 8.25005V6.75005Z" fill="black" fill-opacity="0.6"/>
</svg>
