<svg width="26" height="26" viewBox="0 0 26 26" fill="none" xmlns="http://www.w3.org/2000/svg">
<g opacity="0.6">
<path d="M13.9322 10.9723C13.9322 10.9723 13.9308 10.9711 13.9282 10.969C13.9266 10.9677 13.9246 10.966 13.922 10.9641C13.8427 10.9018 13.3068 10.5115 12.5838 10.7293C11.8329 10.9555 11.6465 11.9829 12.1568 12.3831C12.4498 12.6129 12.8906 12.8018 13.4848 13.0119C14.8146 13.482 14.323 15.3573 12.9703 15.3663C12.4425 15.3698 12.1957 15.3363 11.7319 15.033" stroke="black" stroke-width="1.3" stroke-miterlimit="10" stroke-linecap="round" stroke-linejoin="round"/>
<path d="M13 9.71863V10.66" stroke="black" stroke-width="1.3" stroke-miterlimit="10" stroke-linecap="round" stroke-linejoin="round"/>
<path d="M13 15.3666V16.3079" stroke="black" stroke-width="1.3" stroke-miterlimit="10" stroke-linecap="round" stroke-linejoin="round"/>
<path d="M13.0001 18.1905C15.8594 18.1905 18.1773 15.8726 18.1773 13.0132C18.1773 10.1539 15.8594 7.83594 13.0001 7.83594C10.1407 7.83594 7.82275 10.1539 7.82275 13.0132C7.82275 15.8726 10.1407 18.1905 13.0001 18.1905Z" stroke="black" stroke-width="1.3" stroke-miterlimit="10" stroke-linecap="round" stroke-linejoin="round"/>
<path d="M17.1773 9.95388H20.2954V11.8365L24.5314 8.07119L20.2954 4.30591V6.18855H14.6475V8.10367" stroke="black" stroke-width="1.3" stroke-miterlimit="10" stroke-linecap="round" stroke-linejoin="round"/>
<path d="M8.82288 16.0725H5.7047V14.1898L1.46875 17.9551L5.7047 21.7204V19.8378H11.3527V17.9227" stroke="black" stroke-width="1.3" stroke-miterlimit="10" stroke-linecap="round" stroke-linejoin="round"/>
</g>
</svg>
