<svg width="26" height="26" viewBox="0 0 26 26" fill="none" xmlns="http://www.w3.org/2000/svg">
<path d="M13 13C14.4287 13 15.6657 12.4875 16.6767 11.4765C17.6874 10.4656 18.2 9.22874 18.2 7.79981C18.2 6.37137 17.6876 5.13434 16.6766 4.12313C15.6656 3.11241 14.4286 2.59998 13 2.59998C11.5711 2.59998 10.3343 3.11241 9.32342 4.12329C8.31258 5.13417 7.79999 6.37121 7.79999 7.79981C7.79999 9.22874 8.31258 10.4658 9.32342 11.4767C10.3346 12.4874 11.5716 13 13 13ZM10.2181 5.01788C10.9938 4.24222 11.9037 3.86518 13 3.86518C14.0962 3.86518 15.0062 4.24222 15.782 5.01788C16.5576 5.7937 16.9348 6.70377 16.9348 7.79981C16.9348 8.89618 16.5576 9.80608 15.782 10.5819C15.0062 11.3577 14.0962 11.7348 13 11.7348C11.904 11.7348 10.9941 11.3576 10.2181 10.5819C9.44235 9.80625 9.06515 8.89618 9.06515 7.79981C9.06515 6.70377 9.44235 5.7937 10.2181 5.01788Z" fill="#F8A601"/>
<path d="M22.056 18.7519C22.0265 18.3599 21.9669 17.9322 21.8792 17.4807C21.7907 17.0258 21.6767 16.5957 21.5402 16.2026C21.399 15.7963 21.2075 15.3951 20.9703 15.0107C20.7245 14.6116 20.4356 14.2641 20.1114 13.9782C19.7723 13.679 19.3573 13.4385 18.8773 13.2631C18.3989 13.0886 17.8689 13.0002 17.3018 13.0002C17.0791 13.0002 16.8638 13.0844 16.4479 13.3341C16.1919 13.4881 15.8925 13.6661 15.5583 13.863C15.2725 14.031 14.8854 14.1883 14.4072 14.3307C13.9407 14.4699 13.4671 14.5405 12.9994 14.5405C12.532 14.5405 12.0584 14.4699 11.5915 14.3307C11.1139 14.1884 10.7266 14.0311 10.4413 13.8632C10.1103 13.6681 9.8107 13.4901 9.5509 13.334C9.13532 13.0843 8.91995 13 8.69727 13C8.13007 13 7.60015 13.0886 7.12199 13.2632C6.64233 13.4384 6.22708 13.6789 5.88773 13.9783C5.56352 14.2644 5.27459 14.6117 5.02893 15.0107C4.7921 15.3951 4.60037 15.7962 4.45924 16.2028C4.32293 16.5958 4.20892 17.0258 4.12038 17.4807C4.0325 17.9316 3.97309 18.3594 3.94363 18.7523C3.91467 19.1365 3.90002 19.5363 3.90002 19.9403C3.90002 20.9904 4.26201 21.8406 4.97584 22.4676C5.68085 23.0863 6.61354 23.4 7.74811 23.4H18.252C19.3862 23.4 20.3189 23.0863 21.0241 22.4676C21.7381 21.8411 22.1001 20.9906 22.1001 19.9401C22.0999 19.5348 22.0851 19.135 22.056 18.7519ZM20.1426 21.6134C19.6768 22.0223 19.0583 22.2211 18.2518 22.2211H7.74811C6.94141 22.2211 6.32295 22.0223 5.85727 21.6136C5.40041 21.2125 5.17839 20.665 5.17839 19.9403C5.17839 19.5633 5.19187 19.1911 5.21883 18.8338C5.24513 18.4833 5.29889 18.0982 5.37861 17.689C5.45733 17.2848 5.55752 16.9056 5.67669 16.5622C5.79103 16.233 5.94697 15.907 6.14037 15.593C6.32494 15.2937 6.53731 15.0369 6.77165 14.83C6.99084 14.6365 7.26712 14.4781 7.59266 14.3593C7.89373 14.2494 8.23209 14.1892 8.59941 14.1801C8.64418 14.2021 8.7239 14.244 8.85305 14.3217C9.11585 14.4796 9.41875 14.6598 9.75361 14.857C10.1311 15.079 10.6174 15.2794 11.1984 15.4524C11.7924 15.6295 12.3982 15.7194 12.9995 15.7194C13.6009 15.7194 14.2068 15.6295 14.8005 15.4525C15.382 15.2793 15.8682 15.079 16.2461 14.8567C16.5888 14.6547 16.8832 14.4798 17.146 14.3217C17.2752 14.2442 17.3549 14.2021 17.3997 14.1801C17.7672 14.1892 18.1055 14.2494 18.4068 14.3593C18.7321 14.4781 19.0084 14.6366 19.2276 14.83C19.4619 15.0367 19.6743 15.2935 19.8589 15.5931C20.0524 15.907 20.2086 16.2332 20.3227 16.5621C20.4421 16.9059 20.5424 17.285 20.621 17.6888C20.7005 18.0988 20.7545 18.484 20.7808 18.834V18.8343C20.8079 19.1902 20.8215 19.5623 20.8217 19.9403C20.8215 20.6652 20.5995 21.2125 20.1426 21.6134Z" fill="#F8A601"/>
</svg>
