<svg width="28" height="28" viewBox="0 0 28 28" fill="none" xmlns="http://www.w3.org/2000/svg">
<path d="M25.5644 11.3833L24.1207 9.93956C23.0502 8.86906 21.7794 8.01989 20.3808 7.44053C18.9821 6.86118 17.4831 6.56299 15.9692 6.56299C14.4553 6.56299 12.9562 6.86118 11.5576 7.44053C10.159 8.01989 8.88814 8.86906 7.81769 9.93956L6.38138 11.375H3.9375C3.00956 11.376 2.11993 11.7451 1.46378 12.4013C0.807626 13.0574 0.438542 13.9471 0.4375 14.875V16.1875C0.438195 16.7674 0.668886 17.3234 1.07897 17.7335C1.48906 18.1436 2.04505 18.3743 2.625 18.375H4.84269C4.94862 19.2205 5.35966 19.9983 5.99858 20.5622C6.63751 21.1261 7.46034 21.4372 8.3125 21.4372C9.16466 21.4372 9.98749 21.1261 10.6264 20.5622C11.2653 19.9983 11.6764 19.2205 11.7823 18.375H17.9677C18.0736 19.2205 18.4847 19.9983 19.1236 20.5622C19.7625 21.1261 20.5853 21.4372 21.4375 21.4372C22.2897 21.4372 23.1125 21.1261 23.7514 20.5622C24.3903 19.9983 24.8014 19.2205 24.9073 18.375H25.8125C26.2766 18.375 26.7217 18.1906 27.0499 17.8624C27.3781 17.5342 27.5625 17.0891 27.5625 16.625V13.5625C27.5619 13.0153 27.3564 12.4882 26.9867 12.0849C26.6169 11.6816 26.1095 11.4313 25.5644 11.3833ZM26.6875 13.5625V14H25.375C25.259 14 25.1477 13.9539 25.0656 13.8719C24.9836 13.7898 24.9375 13.6785 24.9375 13.5625V12.25H25.375C25.7231 12.25 26.0569 12.3883 26.3031 12.6344C26.5492 12.8806 26.6875 13.2144 26.6875 13.5625ZM24.3189 11.375H16.625V7.45938C19.2201 7.61174 21.6682 8.71476 23.5016 10.5578L24.3189 11.375ZM8.43762 10.5578C10.3775 8.6084 13.0003 7.49113 15.75 7.44275V11.375H7.61862L8.43762 10.5578ZM3.9375 12.25V13.5625C3.9375 13.7946 3.84531 14.0171 3.68122 14.1812C3.51712 14.3453 3.29456 14.4375 3.0625 14.4375H1.35187C1.45568 13.8265 1.7721 13.2719 2.24524 12.8716C2.71837 12.4713 3.31776 12.2512 3.9375 12.25ZM8.3125 20.5625C7.79332 20.5625 7.28581 20.4085 6.85413 20.1201C6.42245 19.8317 6.086 19.4217 5.88732 18.942C5.68864 18.4624 5.63665 17.9346 5.73794 17.4254C5.83922 16.9162 6.08923 16.4485 6.45634 16.0813C6.82346 15.7142 7.29119 15.4642 7.80039 15.3629C8.30959 15.2617 8.83739 15.3136 9.31704 15.5123C9.7967 15.711 10.2067 16.0475 10.4951 16.4791C10.7835 16.9108 10.9375 17.4183 10.9375 17.9375C10.9368 18.6335 10.66 19.3008 10.1679 19.7929C9.67576 20.285 9.00848 20.5618 8.3125 20.5625ZM21.4375 20.5625C20.9183 20.5625 20.4108 20.4085 19.9791 20.1201C19.5474 19.8317 19.211 19.4217 19.0123 18.942C18.8136 18.4624 18.7617 17.9346 18.8629 17.4254C18.9642 16.9162 19.2142 16.4485 19.5813 16.0813C19.9485 15.7142 20.4162 15.4642 20.9254 15.3629C21.4346 15.2617 21.9624 15.3136 22.442 15.5123C22.9217 15.711 23.3317 16.0475 23.6201 16.4791C23.9085 16.9108 24.0625 17.4183 24.0625 17.9375C24.0618 18.6335 23.785 19.3008 23.2929 19.7929C22.8008 20.285 22.1335 20.5618 21.4375 20.5625ZM25.8125 17.5H24.9073C24.8014 16.6545 24.3903 15.8767 23.7514 15.3128C23.1125 14.7489 22.2897 14.4378 21.4375 14.4378C20.5853 14.4378 19.7625 14.7489 19.1236 15.3128C18.4847 15.8767 18.0736 16.6545 17.9677 17.5H11.7823C11.6764 16.6545 11.2653 15.8767 10.6264 15.3128C9.98749 14.7489 9.16466 14.4378 8.3125 14.4378C7.46034 14.4378 6.63751 14.7489 5.99858 15.3128C5.35966 15.8767 4.94862 16.6545 4.84269 17.5H2.625C2.2769 17.5 1.94306 17.3617 1.69692 17.1156C1.45078 16.8694 1.3125 16.5356 1.3125 16.1875V15.3125H3.0625C3.52663 15.3125 3.97175 15.1281 4.29994 14.7999C4.62813 14.4717 4.8125 14.0266 4.8125 13.5625V12.25H24.0625V13.5625C24.0625 13.9106 24.2008 14.2444 24.4469 14.4906C24.6931 14.7367 25.0269 14.875 25.375 14.875H26.6875V16.625C26.6875 16.8571 26.5953 17.0796 26.4312 17.2437C26.2671 17.4078 26.0446 17.5 25.8125 17.5Z" fill="#F8A601"/>
<path d="M12.25 13.125H15.75V14H12.25V13.125Z" fill="#F8A601"/>
<path d="M16.625 13.125H20.125V14H16.625V13.125Z" fill="#F8A601"/>
<path d="M8.3125 16.1875C7.96638 16.1875 7.62804 16.2901 7.34025 16.4824C7.05247 16.6747 6.82816 16.948 6.69571 17.2678C6.56326 17.5876 6.5286 17.9394 6.59613 18.2789C6.66365 18.6184 6.83032 18.9302 7.07506 19.1749C7.31981 19.4197 7.63163 19.5864 7.97109 19.6539C8.31056 19.7214 8.66243 19.6867 8.9822 19.5543C9.30197 19.4218 9.57528 19.1975 9.76757 18.9097C9.95987 18.622 10.0625 18.2836 10.0625 17.9375C10.0625 17.4734 9.87813 17.0283 9.54994 16.7001C9.22175 16.3719 8.77663 16.1875 8.3125 16.1875ZM8.3125 18.8125C8.13944 18.8125 7.97027 18.7612 7.82638 18.665C7.68248 18.5689 7.57033 18.4322 7.50411 18.2723C7.43788 18.1125 7.42055 17.9365 7.45431 17.7668C7.48808 17.5971 7.57141 17.4412 7.69378 17.3188C7.81615 17.1964 7.97206 17.1131 8.1418 17.0793C8.31153 17.0456 8.48746 17.0629 8.64735 17.1291C8.80723 17.1953 8.94389 17.3075 9.04004 17.4514C9.13618 17.5953 9.1875 17.7644 9.1875 17.9375C9.1875 18.1696 9.09531 18.3921 8.93122 18.5562C8.76712 18.7203 8.54457 18.8125 8.3125 18.8125Z" fill="#F8A601"/>
<path d="M21.4375 16.1875C21.0914 16.1875 20.753 16.2901 20.4653 16.4824C20.1775 16.6747 19.9532 16.948 19.8207 17.2678C19.6883 17.5876 19.6536 17.9394 19.7211 18.2789C19.7887 18.6184 19.9553 18.9302 20.2001 19.1749C20.4448 19.4197 20.7566 19.5864 21.0961 19.6539C21.4356 19.7214 21.7874 19.6867 22.1072 19.5543C22.427 19.4218 22.7003 19.1975 22.8926 18.9097C23.0849 18.622 23.1875 18.2836 23.1875 17.9375C23.1875 17.4734 23.0031 17.0283 22.6749 16.7001C22.3467 16.3719 21.9016 16.1875 21.4375 16.1875ZM21.4375 18.8125C21.2644 18.8125 21.0953 18.7612 20.9514 18.665C20.8075 18.5689 20.6953 18.4322 20.6291 18.2723C20.5629 18.1125 20.5456 17.9365 20.5793 17.7668C20.6131 17.5971 20.6964 17.4412 20.8188 17.3188C20.9412 17.1964 21.0971 17.1131 21.2668 17.0793C21.4365 17.0456 21.6125 17.0629 21.7723 17.1291C21.9322 17.1953 22.0689 17.3075 22.165 17.4514C22.2612 17.5953 22.3125 17.7644 22.3125 17.9375C22.3125 18.1696 22.2203 18.3921 22.0562 18.5562C21.8921 18.7203 21.6696 18.8125 21.4375 18.8125Z" fill="#F8A601"/>
</svg>
