<svg width="16" height="16" viewBox="0 0 16 16" fill="none" xmlns="http://www.w3.org/2000/svg">
<g opacity="0.38">
<path d="M15.794 7.66947C15.1811 6.68584 12.0622 2.375 8 2.375C3.93875 2.375 0.818937 6.68578 0.205969 7.66947L0 8L0.205969 8.33053C0.818875 9.31416 3.93784 13.625 8 13.625C12.0613 13.625 15.1811 9.31425 15.794 8.33053L16 8L15.794 7.66947ZM8 12.375C4.84888 12.375 2.25431 9.07019 1.49662 7.9995C2.25291 6.92794 4.84081 3.625 8 3.625C11.1509 3.625 13.7453 6.92934 14.5034 8.0005C13.7471 9.07209 11.1592 12.375 8 12.375ZM8 4.875C6.27684 4.875 4.875 6.27688 4.875 8C4.875 9.72312 6.27684 11.125 8 11.125C9.72316 11.125 11.125 9.72312 11.125 8C11.125 6.27688 9.72316 4.875 8 4.875ZM8 9.875C6.96613 9.875 6.125 9.03387 6.125 8C6.125 6.96613 6.96613 6.125 8 6.125C9.03387 6.125 9.875 6.96613 9.875 8C9.875 9.03387 9.03387 9.875 8 9.875Z" fill="black"/>
</g>
</svg>
